	<svg xmlns="http://www.w3.org/2000/svg">

		<symbol id="icon-arrow-centered-transparent" viewBox="0 0 54 54">
			<circle cx="27" cy="27" r="26.5" stroke="#303030" />
			<path d="M35.3536 27.3536C35.5488 27.1583 35.5488 26.8417 35.3536 26.6464L32.1716 23.4645C31.9763 23.2692 31.6597 23.2692 31.4645 23.4645C31.2692 23.6597 31.2692 23.9763 31.4645 24.1716L34.2929 27L31.4645 29.8284C31.2692 30.0237 31.2692 30.3403 31.4645 30.5355C31.6597 30.7308 31.9763 30.7308 32.1716 30.5355L35.3536 27.3536ZM19 27.5L35 27.5L35 26.5L19 26.5L19 27.5Z" fill="black" />
		</symbol>


		<symbol id="icon-arrow-shifted" viewBox=" 0 0 54 54">
			<circle cx=" 27" cy="27" r="26.5" fill="#F5F5F5" stroke="#303030" />
			<path d=" M43.3536 27.3536C43.5488 27.1583 43.5488 26.8417 43.3536 26.6464L40.1716 23.4645C39.9763 23.2692 39.6597 23.2692 39.4645 23.4645C39.2692 23.6597 39.2692 23.9763 39.4645 24.1716L42.2929 27L39.4645 29.8284C39.2692 30.0237 39.2692 30.3403 39.4645 30.5355C39.6597 30.7308 39.9763 30.7308 40.1716 30.5355L43.3536 27.3536ZM27 27.5L43 27.5L43 26.5L27 26.5L27 27.5Z" fill="black" />
		</symbol>


		<symbol id="icon-arrow" viewBox="0 0 27 12">
			<path d="M26.5303 6.53033C26.8232 6.23744 26.8232 5.76257 26.5303 5.46967L21.7574 0.696701C21.4645 0.403808 20.9896 0.403808 20.6967 0.696701C20.4038 0.989594 20.4038 1.46447 20.6967 1.75736L24.9393 6L20.6967 10.2426C20.4038 10.5355 20.4038 11.0104 20.6967 11.3033C20.9896 11.5962 21.4645 11.5962 21.7574 11.3033L26.5303 6.53033ZM-6.55671e-08 6.75L26 6.75L26 5.25L6.55671e-08 5.25L-6.55671e-08 6.75Z" fill="black" />
		</symbol>


		<symbol id="icon-bag" viewBox="0 0 16 18">
			<rect y="4" width="16" height="13" rx="1" fill="white"/>
<mask id="path-2-inside-1_3371_18" fill="white">
<rect y="4" width="16" height="13" rx="1"/>
</mask>
<rect y="4" width="16" height="13" rx="1" stroke="#303030" stroke-width="1.6" mask="url(#path-2-inside-1_3371_18)" fill="transparent" />
<path d="M4 8L4 5C4 2.79086 5.79086 1 8 1V1C10.2091 1 12 2.79086 12 5L12 8" stroke="#303030" stroke-width="1.6" fill="transparent" />
		</symbol>


		<symbol id="icon-eye" viewBox=" 0 0 20 20">
			<path fill-rule="evenodd" clip-rule="evenodd" d="M11.0044 1.5C11.0044 0.947715 10.5567 0.5 10.0044 0.5C9.45211 0.5 9.00439 0.947715 9.00439 1.5V3.54989C8.04476 3.64609 7.12848 3.87731 6.27405 4.20772L5.4446 3.05037C5.12289 2.60146 4.49817 2.49836 4.04927 2.82007C3.60036 3.14179 3.49726 3.76651 3.81898 4.21541L4.45792 5.10695C3.92702 5.43178 3.434 5.79271 2.98539 6.17708C1.24791 7.6658 0 9.66836 0 11.5C0 13.3316 1.24791 15.3342 2.98539 16.8229C4.76222 18.3453 7.23586 19.5 10 19.5C12.7639 19.5 15.2376 18.3462 17.0145 16.8241C18.7522 15.3355 20 13.333 20 11.5C20 9.66702 18.7522 7.66444 17.0145 6.17591C16.6848 5.89346 16.331 5.62368 15.9559 5.37161L16.6253 4.43759C16.947 3.98869 16.844 3.36398 16.3951 3.04225C15.9462 2.72053 15.3214 2.82362 14.9997 3.27252L14.1918 4.39975C13.2102 3.96793 12.1376 3.66528 11.0044 3.55075V1.5ZM10 7.5C7.79086 7.5 6 9.29086 6 11.5C6 13.7091 7.79086 15.5 10 15.5C12.2091 15.5 14 13.7091 14 11.5C14 9.29086 12.2091 7.5 10 7.5Z" fill="#C9C9C9" />
		</symbol>


		<symbol id="icon-heart" viewBox="0 0 20 18">
			<path d="M7.94668e-08 5.39995C-0.000248434 3.95029 0.582385 2.5614 1.61681 1.54578C2.65124 0.530159 4.05058 -0.026895 5.5 -4.93311e-05C7.21732 -0.00916934 8.85599 0.719125 10 1.99995C11.144 0.719125 12.7827 -0.00916934 14.5 -4.93311e-05C15.9494 -0.026895 17.3488 0.530159 18.3832 1.54578C19.4176 2.5614 20.0002 3.95029 20 5.39995C20 10.756 13.621 14.8 10 18C6.387 14.773 7.94668e-08 10.76 7.94668e-08 5.39995Z" fill="currentColor" />
		</symbol>


		<symbol id="icon-location" viewBox="0 0 12 16">
			<path d="M5.99992 0C2.80476 0 0.205322 2.59944 0.205322 5.79456C0.205322 9.75981 5.39092 15.581 5.6117 15.8269C5.81907 16.0579 6.18114 16.0575 6.38813 15.8269C6.60892 15.581 11.7945 9.75981 11.7945 5.79456C11.7944 2.59944 9.19504 0 5.99992 0ZM5.99992 8.70997C4.39235 8.70997 3.08454 7.40213 3.08454 5.79456C3.08454 4.187 4.39238 2.87919 5.99992 2.87919C7.60745 2.87919 8.91526 4.18703 8.91526 5.79459C8.91526 7.40216 7.60745 8.70997 5.99992 8.70997Z" fill="#303030" />
		</symbol>


		<symbol id="icon-phone" viewBox="0 0 16 16">
			<path d="M15.5646 11.7424L13.3317 9.50954C12.5343 8.71209 11.1786 9.0311 10.8596 10.0678C10.6204 10.7855 9.82296 11.1842 9.10526 11.0247C7.51037 10.626 5.35726 8.5526 4.95854 6.87797C4.71931 6.16024 5.19778 5.36279 5.91548 5.12359C6.95216 4.80461 7.27113 3.44895 6.47369 2.65151L4.24084 0.418659C3.60288 -0.139553 2.64595 -0.139553 2.08774 0.418659L0.572591 1.93381C-0.942555 3.5287 0.73208 7.75516 4.48007 11.5032C8.22807 15.2511 12.4545 17.0056 14.0494 15.4106L15.5646 13.8955C16.1228 13.2575 16.1228 12.3006 15.5646 11.7424Z" fill="#303030" />
		</symbol>


		<symbol id="icon-arrow-small" viewBox="0 0 9 6">
								<path d="M1 0.712158L4.23753 3.94969L7.47507 0.712158" stroke="#303030" stroke-width="2" fill="none" />
							</symbol>


	<symbol id="icon-heart-empty" viewBox="0 0 18 16">
		<path d="M8.99998 15.5C8.46248 15.0233 7.85498 14.5275 7.21248 14H7.20415C4.94165 12.15 2.37748 10.0566 1.24498 7.54829C0.87291 6.74973 0.675732 5.8809 0.666635 4.99996C0.664151 3.7912 1.14895 2.63245 2.01149 1.7856C2.87402 0.938751 4.04147 0.475289 5.24998 0.49996C6.23384 0.501514 7.19651 0.785861 8.02331 1.31913C8.38662 1.55493 8.71533 1.84017 8.99998 2.16663C9.28622 1.84145 9.61502 1.55638 9.97748 1.31913C10.8039 0.785756 11.7664 0.501392 12.75 0.49996C13.9585 0.475289 15.1259 0.938751 15.9885 1.7856C16.851 2.63245 17.3358 3.7912 17.3333 4.99996C17.3248 5.88231 17.1276 6.75262 16.755 7.55246C15.6225 10.0608 13.0591 12.1533 10.7966 14L10.7883 14.0066C10.145 14.5308 9.53831 15.0266 9.00081 15.5066L8.99998 15.5ZM5.24998 2.16663C4.47374 2.15691 3.72504 2.454 3.16665 2.99329C2.62863 3.52176 2.32794 4.24583 2.33324 4.99996C2.34275 5.64204 2.48817 6.27484 2.75998 6.85663C3.29457 7.93888 4.0159 8.91834 4.89081 9.74996C5.71665 10.5833 6.66665 11.39 7.48831 12.0683C7.71581 12.2558 7.94748 12.445 8.17915 12.6341L8.32498 12.7533C8.54748 12.935 8.77748 13.1233 8.99998 13.3083L9.01081 13.2983L9.01581 13.2941H9.02081L9.02831 13.2883H9.03248H9.03664L9.05165 13.2758L9.08581 13.2483L9.09165 13.2433L9.10081 13.2366H9.10581L9.11331 13.23L9.66665 12.7758L9.81165 12.6566C10.0458 12.4658 10.2775 12.2766 10.505 12.0891C11.3266 11.4108 12.2775 10.605 13.1033 9.76746C13.9783 8.93626 14.6997 7.95705 15.2341 6.87496C15.5109 6.28813 15.6584 5.64871 15.6667 4.99996C15.6701 4.24816 15.3696 3.52687 14.8333 2.99996C14.276 2.45823 13.5272 2.1587 12.75 2.16663C11.8016 2.15857 10.8949 2.5561 10.2583 3.25913L8.99998 4.70913L7.74165 3.25913C7.10503 2.5561 6.19838 2.15857 5.24998 2.16663Z" fill="#303030" />
	</symbol>


									<symbol id="icon-chart" viewBox="0 0 20 20">
									<line x1="5.1" y1="10" x2="5.1" y2="17" stroke="#303030" stroke-width="2.2" />
									<line x1="10.1" y1="2" x2="10.1" y2="17" stroke="#303030" stroke-width="2.2" />
									<line x1="15.1" y1="5" x2="15.1" y2="17" stroke="#303030" stroke-width="2.2" />
								</symbol>
	</svg>